<svg id="Layer_1" height="512" viewBox="0 0 64 64" width="512" xmlns="http://www.w3.org/2000/svg" data-name="Layer 1"><path d="m55 63h-46v-62h36l10 10z" fill="#23a8cc"/><g opacity=".2"><path d="m43 1v12h12v-2l-10-10z" fill="#231f20"/></g><path d="m45 1v10h10z" fill="#6a951f"/><path d="m16 6h20v20h-20z" fill="#fcc325"/><path d="m30 13c0 2.209-1.852 5-4 5s-4-2.791-4-5a4 4 0 0 1 8 0z" fill="#fbe41a"/><path d="m16 26 4-6 5-2h2l5 2 4 6z" fill="#6a951f"/><path d="m27 21a1 1 0 0 0 -2 0v5h2z" fill="#91b472"/><g fill="#043c49"><path d="m56.032 11a1.032 1.032 0 0 0 -.3-.729l-10-10a1.03 1.03 0 0 0 -.73-.3h-36.002a1.032 1.032 0 0 0 -1.032 1.029v62a1.032 1.032 0 0 0 1.032 1.032h46a1.032 1.032 0 0 0 1.032-1.032v-12a1.032 1.032 0 0 0 -2.064 0v10.968h-43.936v-59.936h33.968v8.968a1 1 0 0 0 1 1h8.968v30a1.032 1.032 0 0 0 2.064 0zm-10.032-7.54 6.54 6.54h-6.54z"/><path d="m16 56a1 1 0 0 0 0 2h19a1 1 0 0 0 0-2z"/><path d="m38 51a1 1 0 0 0 -1-1h-21a1 1 0 0 0 0 2h21a1 1 0 0 0 1-1z"/><path d="m48 16h-8a1 1 0 0 0 0 2h8a1 1 0 0 0 0-2z"/><path d="m48 20h-8a1 1 0 0 0 0 2h8a1 1 0 0 0 0-2z"/><path d="m48 30h-32a1 1 0 0 0 0 2h32a1 1 0 0 0 0-2z"/><path d="m48 34h-32a1 1 0 0 0 0 2h32a1 1 0 0 0 0-2z"/><path d="m16 40h20a1 1 0 0 0 0-2h-20a1 1 0 0 0 0 2z"/><path d="m48 42h-32a1 1 0 0 0 0 2h32a1 1 0 0 0 0-2z"/><path d="m49 47a1 1 0 0 0 -1-1h-32a1 1 0 0 0 0 2h32a1 1 0 0 0 1-1z"/><path d="m41 50a1 1 0 0 0 0 2h1a1 1 0 0 0 0-2z"/><path d="m45 50a1 1 0 0 0 0 2h1a1 1 0 0 0 0-2z"/><path d="m15 26a1 1 0 0 0 1 1h20a1 1 0 0 0 1-1v-20a1 1 0 0 0 -1-1h-20a1 1 0 0 0 -1 1v2a1 1 0 0 0 2 0v-1h18v15.7l-2.168-3.252a1 1 0 0 0 -.46-.374l-3.446-1.378a6.867 6.867 0 0 0 2.074-4.696 5 5 0 0 0 -10 0 6.867 6.867 0 0 0 2.074 4.693l-3.446 1.378a1 1 0 0 0 -.486.414l-2.142 3.571v-5.056a1 1 0 0 0 -2 0zm11-16a3.04 3.04 0 0 1 3 3c0 1.71-1.483 4-3 4s-3-2.29-3-4a3.04 3.04 0 0 1 3-3zm-5.316 10.8 4.673-1.87a3.163 3.163 0 0 0 1.285 0l4.7 1.879 2.789 4.191h-7.131v-4a1 1 0 0 0 -2 0v4h-6.834z"/><path d="m16 15a1 1 0 0 0 1-1v-2a1 1 0 0 0 -2 0v2a1 1 0 0 0 1 1z"/><path d="m55 45a1 1 0 0 0 -1 1v1a1 1 0 0 0 2 0v-1a1 1 0 0 0 -1-1z"/></g></svg>